<?xml version="1.0" encoding="UTF-8"?>
<svg version="1.1" width="512" height="512" xmlns="http://www.w3.org/2000/svg">
<path d="m506 506c-245-131-254-131-499 0 131-245 131-254 0-499 245 130 254 130 499 0-130 245-130 254 0 499z" fill="#823894" stroke="#ecbd04" stroke-linejoin="round" stroke-width="10"/>
<path d="m400 256c0 37-14 71-37 96-26 29-64 47-106 47-79 0-143-64-143-143s64-143 143-143 143 64 143 143z" fill="#d7eef4" stroke="#fbcd18" stroke-width="17"/>
<path d="m200 206c-13 15-46 49-64 31v27c18 9.4 32 5 63-36z" fill="#782121"/>
<path d="m200 206c-38-39-67 33-88-5l-9.7 24c38 40 46-35 97 9z" fill="#a02c2c"/>
<path d="m351 129c-53 95-110 57-146 3-2.9 1.2-5.8 2.6-8.7 4.1-2.7 61-0.19 123 0.3 184 0.075 9.3-7.3 15-17 15-16 1.2-26 5.3-30-43-1.4-16-17-24-19 9.7 9.9 27 27 49 50 65l161-5.2c7.8-6.1 11-9.9 15-14l0.47-215c8e-3 -3.8-0.17-12-6-3.3z"/>
<path d="m194 202c55 8.2 111 8.7 165-4.7l1 64c-55 9.3-111 10-169 3.5z" fill="#c83737"/>
<path d="m277 239c-0.23-16-8.7-38-34-37-25 0.93-32 22-31 38 1.2 16 14 35 35 33 22-2.1 30-18 30-34z" fill="#f9f9f9"/>
<path d="m277 242c-0.074-23 8.5-42 30-42 22-0.081 37 29 35 46-1.8 17-19 29-34 27-15-1.7-31-8-31-31z" fill="#f9f9f9"/>
<path d="m257 238c0 3.7-2.1 6.3-6.3 6.3-3.8 0-6.8-2.5-6.8-6.7 0-4.5 3-6.7 6.8-6.7s6.3 3.4 6.3 7.1z"/>
<path d="m309 235c1.5-3.4 4.5-4.9 8.4-3.1 3.4 1.5 5.2 5 3.4 8.9-1.9 4.1-5.5 4.9-9 3.3-3.4-1.5-4.4-5.7-2.8-9.1z"/>
</svg>
