<?xml version="1.0" encoding="UTF-8"?>
<svg width="512" height="512" version="1.1" xmlns="http://www.w3.org/2000/svg">
<path d="m8.9 75 54 326 441-20c-3.3-14-12-26-20-38-8-12-15-25-13-41 4-19 8.3-38 7.5-58 0.96-46-3.3-95 16-139 6.6-26-23-38-48-34-42 13-84 22-127 31-64 13-132 14-193-12-37-14-78-32-117-16z" fill="#f2f2f2"/>
<path d="m4.5 82c36 111 20 156 20 231 2.1 42 16 46-3.2 65-33 32 38 54 83 57 128 14 261 13 385-27 41-37-28-111-58-50-71 35-153 26-229 31-55-3.9-156 14-147-71-7.2-62 20-125 0.23-186-8.8-24-30-38-51-51z" fill="#e6e6e6"/>
<path d="m26 189c2.1 60-18 121 2.4 179-31 24-21 52 19 60 116 23 235 23 351 5.9 36-5.8 78-4.8 104-30 33-32-44-62-27-107 9.3-42 3.4-84 5.9-126-0.67-34 40-110-15-103-102 14-204 61-306 32-47-13-94-41-141-32-47 9 11 80 6.3 121zm264-53c23 3.5 88 4.8 32-2-20-3.7-77-9.4-72-16 77-2.7 152-33 229-42 21 7.6 2.8 84-7.5 72-6.5-19-19-44-8.2-7.5 21 71 14 150-13 218 2.6 14 25-54 25-13 0.19 22 56 43-4.6 63-121 39-248 30-373 20-39-2.9-114-14-57-62 13-15 27-58 3.5-20-25 18-17-63-15-88 4.6-44 19-86 30-128-11 18-29 84-28 28-0.85-24-50-88 13-84 64 3.9 159 55 247 62z"/>
</svg>
